<?xml version="1.0" encoding="UTF-8"?>
<svg version="1.1" xmlns="http://www.w3.org/2000/svg" width="129" height="128">
<path d="M0 0 C0.825 0.103125 1.65 0.20625 2.5 0.3125 C5.30559906 4.52089859 4.30417221 6.96414284 3.38671875 11.78515625 C0.76367782 22.21954374 -3.30955183 31.20272512 -10.5 39.3125 C-11.42039062 40.53066406 -11.42039062 40.53066406 -12.359375 41.7734375 C-20.9446352 51.95668408 -35.46543024 60.1315427 -48.8359375 61.5625 C-51 61.625 -51 61.625 -54.5 61.3125 C-55.16 60.6525 -55.82 59.9925 -56.5 59.3125 C-56.125 56.6875 -56.125 56.6875 -55.5 54.3125 C-53.6746875 53.7246875 -53.6746875 53.7246875 -51.8125 53.125 C-50.04053962 52.52414687 -48.26983642 51.91958082 -46.5 51.3125 C-45.47519531 50.9721875 -44.45039062 50.631875 -43.39453125 50.28125 C-28.89897347 45.15498345 -16.98338707 35.98639131 -10.125 22 C-7.72572715 16.41937088 -6.26496675 10.85498399 -5.140625 4.89453125 C-4.29451201 1.48428316 -3.53763331 0.44220416 0 0 Z " fill="#E5EFFF" transform="translate(124.5,66.6875)"/>
<path d="M0 0 C2.625 0.375 2.625 0.375 5 1 C5.34611328 2.45019531 5.34611328 2.45019531 5.69921875 3.9296875 C9.55911383 19.57273829 16.35478859 33.49988565 30 43 C38.65339961 48.04870781 47.33019053 51.41388817 57 54 C57.625 56.375 57.625 56.375 58 59 C56 61 56 61 52.8125 61.4375 C41.61940073 61.11188257 30.7973421 55.48456332 22 49 C21.37996094 48.56300781 20.75992187 48.12601563 20.12109375 47.67578125 C8.80021201 38.92902111 0.70712634 24.97701102 -2 11 C-2.11291505 9.46120419 -2.17459967 7.91787911 -2.1875 6.375 C-2.20167969 5.59898438 -2.21585937 4.82296875 -2.23046875 4.0234375 C-2 2 -2 2 0 0 Z " fill="#E6EFFF" transform="translate(2,67)"/>
<path d="M0 0 C13.52011195 -1.40185493 26.01842468 4.89935406 36.51953125 12.92578125 C47.90591702 22.4931438 55.98128693 35.33767937 59 50 C59.07905064 52.33199388 59.08798769 54.66832622 59 57 C58.67 57.33 58.34 57.66 58 58 C55.66055264 57.71269945 53.3260857 57.38063221 51 57 C50.72027344 55.98421875 50.44054687 54.9684375 50.15234375 53.921875 C47.53973675 44.81107457 44.352447 36.92261969 39 29 C38.60167969 28.39800781 38.20335937 27.79601562 37.79296875 27.17578125 C29.10961104 15.48546574 13.31430179 10.78896665 0 7 C-1.125 2.25 -1.125 2.25 0 0 Z " fill="#E6EFFF" transform="translate(69,0)"/>
<path d="M0 0 C0.89203125 0.00902344 1.7840625 0.01804688 2.703125 0.02734375 C3.37859375 0.03894531 4.0540625 0.05054688 4.75 0.0625 C5.4375 2.375 5.4375 2.375 5.75 5.0625 C3.38311491 8.46809006 0.32547214 8.84735641 -3.5625 9.75 C-18.95880584 13.88655935 -30.54033077 22.73718028 -39.25 36.0625 C-42.76371548 42.86132779 -44.68867589 49.61618499 -46.25 57.0625 C-46.91 57.7225 -47.57 58.3825 -48.25 59.0625 C-52.80555556 58.50694444 -52.80555556 58.50694444 -54.25 57.0625 C-55.1156725 43.29830724 -47.7174133 30.10432329 -39.0625 19.9375 C-29.23495101 9.48753957 -14.88728611 -0.19588534 0 0 Z " fill="#E5EFFF" transform="translate(54.25,-0.0625)"/>
<path d="M0 0 C2.49472383 0.29624845 3.73484433 0.74611345 5.5625 2.49609375 C13.62090947 13.3793261 17.35413963 26.47553043 16 40 C14.18271714 50.31514534 11.64896553 60.35103447 4 68 C1.875 67.625 1.875 67.625 0 67 C-1.16344539 63.56751472 -1.09648237 62.22392756 0.36328125 58.8359375 C1.00652344 57.69382813 1.64976563 56.55171875 2.3125 55.375 C8.05288523 44.58635275 9.43923871 34.0324285 6.2109375 22.078125 C4.66844364 17.53842762 2.86307341 13.60482229 0.1875 9.625 C-2.01469283 6.34528162 -2.01469283 6.34528162 -1.875 3.0625 C-1 1 -1 1 0 0 Z " fill="#E5EFFF" transform="translate(101,31)"/>
<path d="M0 0 C3.94115907 0.19225166 6.45244864 1.17607087 9.625 3.375 C18.7229867 9.34231067 30.38743423 10.40633745 40.91796875 8.4609375 C47.90922255 6.70589172 54.01525921 3.9898272 60 0 C62.1875 0.375 62.1875 0.375 64 1 C64.495 3.475 64.495 3.475 65 6 C51.90715899 15.48756595 39.01901409 18.33917498 23 17 C13.93250129 15.30105752 4.62320853 11.62320853 -2 5 C-1.46428571 1.46428571 -1.46428571 1.46428571 0 0 Z " fill="#E6EFFF" transform="translate(32,101)"/>
<path d="M0 0 C2.125 0.375 2.125 0.375 4 1 C5.13898283 4.38548487 5.13059151 5.71037871 3.63671875 9.0234375 C2.67185547 10.68246094 2.67185547 10.68246094 1.6875 12.375 C-3.64031302 22.24229366 -5.20478516 32.88436375 -2.984375 43.94140625 C-1.37700895 48.93572218 1.07162831 53.40401992 3.63671875 57.96875 C5 61 5 61 4.70703125 63.40625 C4.47371094 63.9321875 4.24039062 64.458125 4 65 C1.525 65.495 1.525 65.495 -1 66 C-7.28867792 57.69894514 -11.22418499 48.47350261 -12 38 C-12.06316406 37.31292969 -12.12632813 36.62585938 -12.19140625 35.91796875 C-12.80451823 23.99195186 -9.16174967 11.53535813 -2 2 C-1.34 1.34 -0.68 0.68 0 0 Z " fill="#E6EEFF" transform="translate(23,32)"/>
<path d="M0 0 C0.87398437 0.58007812 0.87398437 0.58007812 1.765625 1.171875 C1.435625 2.821875 1.105625 4.471875 0.765625 6.171875 C-0.875 6.84765625 -0.875 6.84765625 -3.234375 7.171875 C-5.96875 6.02734375 -5.96875 6.02734375 -8.984375 4.359375 C-20.37125977 -1.5535736 -31.54717455 -2.74441537 -44.109375 0.859375 C-48.77458905 2.43714812 -52.55315728 4.46861354 -56.578125 7.265625 C-58.234375 8.171875 -58.234375 8.171875 -61.234375 7.984375 C-61.894375 7.71625 -62.554375 7.448125 -63.234375 7.171875 C-63.4765625 4.86328125 -63.4765625 4.86328125 -63.234375 2.171875 C-46.84780722 -14.65008468 -17.85412198 -11.34129761 0 0 Z " fill="#E5EFFF" transform="translate(94.234375,21.828125)"/>
<path d="M0 0 C5.61 0 11.22 0 17 0 C17 3.25358424 16.76934025 4.99426029 16 8 C15.66466593 10.3027799 15.35536306 12.60940308 15.0625 14.91796875 C14.8881219 16.26759119 14.71363969 17.61720018 14.5390625 18.96679688 C14.26763599 21.08663795 13.99758014 23.20663833 13.72949219 25.3269043 C13.46915705 27.37858188 13.20365181 29.42953886 12.9375 31.48046875 C12.78152344 32.70660889 12.62554687 33.93274902 12.46484375 35.19604492 C12 38 12 38 11 39 C9.33382885 39.04063832 7.66611905 39.042721 6 39 C4.32779948 31.41693882 3.29907493 23.838147 2.4375 16.125 C2.18855937 13.91900307 1.93735311 11.71326032 1.68359375 9.5078125 C1.57587646 8.54504395 1.46815918 7.58227539 1.35717773 6.59033203 C1.01183186 3.74205166 1.01183186 3.74205166 0 0 Z " fill="#E5EEFF" transform="translate(55,62)"/>
<path d="M0 0 C3.60067126 0.87838956 4.94522296 2.42198203 6.9375 5.47265625 C7.81222516 9.82305928 7.75574557 13.21381691 5.3125 16.97265625 C2.39230836 18.81698781 0.38836274 19.33180471 -3.0625 19.47265625 C-6.55468185 18.49809387 -8.77095346 17.27415258 -11.0625 14.47265625 C-11.75228598 11.40310864 -11.62481106 8.55996022 -11.0625 5.47265625 C-8.09758033 0.932623 -5.25799038 -0.38837429 0 0 Z " fill="#E6EFFF" transform="translate(66.0625,29.52734375)"/>
<path d="M0 0 C1.85625 -0.061875 1.85625 -0.061875 3.75 -0.125 C4.79414062 -0.15980469 4.79414062 -0.15980469 5.859375 -0.1953125 C8 0 8 0 9.97265625 1.02734375 C12.48470499 2.23254632 13.95124952 2.06288643 16.6875 1.6875 C17.47511719 1.58824219 18.26273438 1.48898438 19.07421875 1.38671875 C20.99960267 1.185081 20.99960267 1.185081 22 0 C24.67058851 -0.14115161 27.32432238 -0.04247107 30 0 C29.25 4.75 29.25 4.75 27 7 C23.03951178 7.45655797 19.0462619 7.32402042 15.0625 7.3125 C13.39670898 7.33666992 13.39670898 7.33666992 11.69726562 7.36132812 C10.63314453 7.36197266 9.56902344 7.36261719 8.47265625 7.36328125 C7.49562744 7.36626221 6.51859863 7.36924316 5.51196289 7.37231445 C3 7 3 7 1.15795898 5.72729492 C0 4 0 4 0 0 Z " fill="#E5EEFF" transform="translate(49,49)"/>
<path d="M0 0 C7.92 0 15.84 0 24 0 C24 1.32 24 2.64 24 4 C16.08 4 8.16 4 0 4 C0 2.68 0 1.36 0 0 Z " fill="#E5EFFF" transform="translate(52,57)"/>
</svg>
