<svg version="1.1" id="Layer_1" xmlns="http://www.w3.org/2000/svg" xmlns:xlink="http://www.w3.org/1999/xlink" x="0px" y="0px"
	 width="100%" viewBox="0 0 150 150" enable-background="new 0 0 150 150" xml:space="preserve">
<path fill="#3D696D" opacity="1.000000" stroke="none" 
	d="
M151.000000,14.000000 
	C151.000000,54.687561 151.000000,95.375122 150.648788,136.415405 
	C146.179947,141.065857 142.051682,145.353561 137.974655,149.689484 
	C137.760620,149.917114 137.981567,150.553772 138.000000,151.000000 
	C97.312439,151.000000 56.624878,151.000000 15.582256,150.647552 
	C10.228617,147.007462 4.962009,144.011429 2.312655,138.195084 
	C2.212936,137.976166 1.452528,138.058197 1.000001,138.000000 
	C1.000000,97.312439 1.000000,56.624878 1.351508,15.582625 
	C5.820843,10.931429 9.949294,6.644918 14.026502,2.310206 
	C14.240314,2.082890 14.018832,1.446139 14.000000,1.000000 
	C54.687561,1.000000 95.375122,1.000000 136.417130,1.351479 
	C141.068192,5.820503 145.354828,9.948676 149.689636,14.025611 
	C149.917145,14.239589 150.553818,14.018531 151.000000,14.000000 
M81.382645,78.336685 
	C82.340996,77.409523 83.299339,76.482368 84.257690,75.555206 
	C82.998543,75.038162 81.767151,74.179153 80.474556,74.074280 
	C77.662750,73.846146 74.806717,73.841141 71.994774,74.067703 
	C70.515030,74.186928 69.090042,74.985657 67.640327,75.477570 
	C68.397896,76.639206 69.155464,77.800850 69.281548,79.476540 
	C70.444298,89.295174 71.527214,99.124786 72.874321,108.918060 
	C73.036461,110.096748 74.629929,111.078545 75.559990,112.151604 
	C76.626892,110.983910 78.426445,109.935349 78.638916,108.628716 
	C79.805840,101.452477 80.703102,94.225052 81.433449,86.989014 
	C81.700539,84.342735 81.254723,81.624512 81.382645,78.336685 
M140.142944,82.890572 
	C138.686172,81.650368 137.229401,80.410156 135.772629,79.169952 
	C134.596298,80.622803 133.155197,81.941460 132.328918,83.571732 
	C131.688828,84.834633 131.952087,86.521545 131.584549,87.961464 
	C125.424797,112.094055 110.091049,126.724037 85.785629,131.950027 
	C82.907181,132.568924 80.385971,133.428055 81.027588,136.970123 
	C81.636574,140.332123 84.408592,140.174408 86.968475,139.823669 
	C113.889053,136.135162 137.787567,110.903625 140.142944,82.890572 
M39.846035,129.677368 
	C41.846416,130.861359 43.726555,132.366547 45.869812,133.168900 
	C52.213627,135.543777 58.614304,137.795593 65.092545,139.767670 
	C67.530136,140.509689 70.334946,140.251663 70.984512,136.920013 
	C71.623039,133.644974 69.350227,132.583969 66.667130,132.044922 
	C65.203033,131.750793 63.739227,131.448792 62.288116,131.097366 
	C40.292660,125.770615 23.553247,107.665695 19.896303,85.233490 
	C19.442863,82.452026 18.805130,79.699074 15.187831,80.089722 
	C11.281446,80.511574 12.030250,83.676247 12.073604,86.268997 
	C12.087252,87.085167 12.339741,87.900665 12.511621,88.710373 
	C16.123148,105.724060 25.055000,119.230766 39.846035,129.677368 
M43.055893,29.479536 
	C48.246078,26.907448 53.346142,24.124918 58.662766,21.848072 
	C61.512589,20.627634 64.880775,20.616510 67.728584,19.392944 
	C69.182297,18.768358 70.004128,16.673096 71.111557,15.242570 
	C69.702530,14.164861 68.409599,12.839355 66.840141,12.104092 
	C65.925636,11.675661 64.546120,12.078874 63.413536,12.300571 
	C37.710098,17.331877 16.779720,38.483845 12.257560,64.024109 
	C11.775943,66.744186 11.573801,69.690125 15.291228,70.218819 
	C18.478741,70.672150 19.461535,68.452545 19.984234,65.677460 
	C22.782654,50.820248 30.348129,38.917183 43.055893,29.479536 
M139.654129,63.751244 
	C134.189056,39.632061 120.027473,23.051065 96.690498,14.635698 
	C92.841301,13.247672 88.656143,12.628657 84.568436,12.173504 
	C83.480484,12.052366 81.252647,13.802659 81.194908,14.790026 
	C81.111900,16.209629 82.180237,18.315762 83.403351,19.044977 
	C85.164520,20.094986 87.527176,20.096256 89.596901,20.674725 
	C112.368172,27.039053 126.247383,41.886158 131.976685,64.733711 
	C132.457535,66.651291 134.835663,68.093094 136.332321,69.755936 
	C137.494690,68.013641 138.657059,66.271347 139.654129,63.751244 
M70.950096,129.728714 
	C83.499977,130.737854 95.078438,127.848305 105.389832,120.624130 
	C106.856140,119.596840 108.445564,116.531738 107.913628,115.304840 
	C106.617332,112.315025 104.153610,113.934402 102.108398,115.213165 
	C84.394913,126.288429 66.794441,126.177391 49.157906,114.888176 
	C47.757542,113.991798 45.432236,114.540382 43.536777,114.417458 
	C44.251530,116.331367 44.405510,118.947525 45.775196,120.041267 
	C52.833134,125.677238 61.204815,128.331741 70.950096,129.728714 
M125.735664,60.870247 
	C123.409378,56.301590 121.197662,51.669212 118.707512,47.191685 
	C117.497879,45.016655 115.686859,42.509838 112.819649,44.497292 
	C109.808144,46.584766 112.099388,48.804054 113.469116,50.849297 
	C120.396759,61.193489 123.880058,72.540802 121.010223,84.818314 
	C119.457008,91.463173 115.912453,97.627502 113.517235,104.101486 
	C112.938553,105.665596 113.354538,107.597702 113.313126,109.360588 
	C115.132050,108.811783 117.034386,108.439026 118.732216,107.634628 
	C119.499542,107.271088 119.883736,106.063347 120.401581,105.214104 
	C128.751999,91.519638 130.260406,76.951202 125.735664,60.870247 
M67.215530,32.259590 
	C79.499481,30.404980 90.974564,32.318813 101.593567,39.116386 
	C102.875137,39.936752 105.251488,39.046864 107.120430,38.949642 
	C106.382019,37.212463 106.138138,34.804806 104.830048,33.839981 
	C88.568367,21.845686 61.808292,22.202375 45.951866,34.626915 
	C44.684803,35.619740 44.540623,38.045609 43.874622,39.805519 
	C45.785137,39.809681 47.904659,40.358032 49.568176,39.719101 
	C55.256710,37.534225 60.785015,34.932167 67.215530,32.259590 
M39.236782,106.403885 
	C38.991463,105.619789 38.905998,104.732887 38.477501,104.066597 
	C27.032780,86.270744 27.116028,68.535538 38.430752,50.676601 
	C39.227947,49.418320 38.545151,47.222370 38.550556,45.462440 
	C36.751274,46.055679 34.200989,46.088455 33.272999,47.331928 
	C26.599243,56.274487 23.629915,66.514748 23.659012,77.649361 
	C23.686693,88.242996 26.606274,97.973366 32.545017,106.735359 
	C34.400711,109.473228 36.645969,111.696632 39.236782,106.403885 
M69.414429,44.997799 
	C66.134003,49.003059 65.978081,53.198380 69.179390,57.196453 
	C71.914856,60.612732 75.886536,60.896309 79.582359,59.451725 
	C83.463799,57.934582 85.305161,54.590508 84.932587,50.302509 
	C84.330856,43.377026 75.370384,39.178600 69.414429,44.997799 
M80.333405,67.924911 
	C84.849655,68.127045 89.393517,68.379578 90.988907,61.283997 
	C87.201103,62.029423 84.094604,62.913834 80.935165,63.187935 
	C77.583374,63.478725 74.163628,63.390942 70.806366,63.095612 
	C67.697769,62.822163 64.632523,62.055958 60.437782,61.309021 
	C62.522106,65.965111 64.302612,68.267952 68.400116,67.977203 
	C72.043503,67.718689 75.719810,67.924225 80.333405,67.924911 
M81.297409,69.062775 
	C76.488380,69.073868 71.674385,68.974609 66.874603,69.190849 
	C65.934700,69.233192 65.049850,70.497528 64.139603,71.198257 
	C65.008942,71.770653 65.867004,72.818069 66.749443,72.839043 
	C72.881470,72.984703 79.021233,73.006210 85.151154,72.822487 
	C86.074165,72.794815 86.958870,71.489586 87.861298,70.775322 
	C86.979118,70.217079 86.159393,69.457886 85.196701,69.158745 
	C84.285973,68.875740 83.225151,69.075729 81.297409,69.062775 
z"/>
<path fill="#000000" opacity="1.000000" stroke="none" 
	d="
M1.000001,138.476654 
	C1.452528,138.058197 2.212936,137.976166 2.312655,138.195084 
	C4.962009,144.011429 10.228617,147.007462 15.113598,150.647552 
	C10.413164,151.000000 5.826328,151.000000 1.000000,151.000000 
	C1.000000,146.986389 1.000000,142.969864 1.000001,138.476654 
z"/>
<path fill="#000000" opacity="1.000000" stroke="none" 
	d="
M138.476654,151.000000 
	C137.981567,150.553772 137.760620,149.917114 137.974655,149.689484 
	C142.051682,145.353561 146.179947,141.065857 150.648788,136.884064 
	C151.000000,141.586838 151.000000,146.173676 151.000000,151.000000 
	C146.986389,151.000000 142.969864,151.000000 138.476654,151.000000 
z"/>
<path fill="#000000" opacity="1.000000" stroke="none" 
	d="
M151.000000,13.523338 
	C150.553818,14.018531 149.917145,14.239589 149.689636,14.025611 
	C145.354828,9.948676 141.068192,5.820503 136.885788,1.351479 
	C141.586838,1.000000 146.173676,1.000000 151.000000,1.000000 
	C151.000000,5.013611 151.000000,9.030144 151.000000,13.523338 
z"/>
<path fill="#000000" opacity="1.000000" stroke="none" 
	d="
M13.523338,1.000000 
	C14.018832,1.446139 14.240314,2.082890 14.026502,2.310206 
	C9.949294,6.644918 5.820843,10.931429 1.351508,15.113968 
	C1.000000,10.413164 1.000000,5.826328 1.000000,1.000000 
	C5.013611,1.000000 9.030144,1.000000 13.523338,1.000000 
z"/>
<path fill="#B7C9D7" opacity="1.000000" stroke="none" 
	d="
M140.132874,83.315369 
	C137.787567,110.903625 113.889053,136.135162 86.968475,139.823669 
	C84.408592,140.174408 81.636574,140.332123 81.027588,136.970123 
	C80.385971,133.428055 82.907181,132.568924 85.785629,131.950027 
	C110.091049,126.724037 125.424797,112.094055 131.584549,87.961464 
	C131.952087,86.521545 131.688828,84.834633 132.328918,83.571732 
	C133.155197,81.941460 134.596298,80.622803 135.772629,79.169952 
	C137.229401,80.410156 138.686172,81.650368 140.132874,83.315369 
z"/>
<path fill="#B7C9D7" opacity="1.000000" stroke="none" 
	d="
M39.549995,129.470383 
	C25.055000,119.230766 16.123148,105.724060 12.511621,88.710373 
	C12.339741,87.900665 12.087252,87.085167 12.073604,86.268997 
	C12.030250,83.676247 11.281446,80.511574 15.187831,80.089722 
	C18.805130,79.699074 19.442863,82.452026 19.896303,85.233490 
	C23.553247,107.665695 40.292660,125.770615 62.288116,131.097366 
	C63.739227,131.448792 65.203033,131.750793 66.667130,132.044922 
	C69.350227,132.583969 71.623039,133.644974 70.984512,136.920013 
	C70.334946,140.251663 67.530136,140.509689 65.092545,139.767670 
	C58.614304,137.795593 52.213627,135.543777 45.869812,133.168900 
	C43.726555,132.366547 41.846416,130.861359 39.549995,129.470383 
z"/>
<path fill="#B7C9D7" opacity="1.000000" stroke="none" 
	d="
M42.765038,29.690926 
	C30.348129,38.917183 22.782654,50.820248 19.984234,65.677460 
	C19.461535,68.452545 18.478741,70.672150 15.291228,70.218819 
	C11.573801,69.690125 11.775943,66.744186 12.257560,64.024109 
	C16.779720,38.483845 37.710098,17.331877 63.413536,12.300571 
	C64.546120,12.078874 65.925636,11.675661 66.840141,12.104092 
	C68.409599,12.839355 69.702530,14.164861 71.111557,15.242571 
	C70.004128,16.673096 69.182297,18.768358 67.728584,19.392944 
	C64.880775,20.616510 61.512589,20.627634 58.662766,21.848072 
	C53.346142,24.124918 48.246078,26.907448 42.765038,29.690926 
z"/>
<path fill="#B7C9D7" opacity="1.000000" stroke="none" 
	d="
M139.736786,64.140152 
	C138.657059,66.271347 137.494690,68.013641 136.332321,69.755936 
	C134.835663,68.093094 132.457535,66.651291 131.976685,64.733711 
	C126.247383,41.886158 112.368172,27.039053 89.596901,20.674725 
	C87.527176,20.096256 85.164520,20.094986 83.403351,19.044977 
	C82.180237,18.315762 81.111900,16.209629 81.194908,14.790026 
	C81.252647,13.802659 83.480484,12.052366 84.568436,12.173504 
	C88.656143,12.628657 92.841301,13.247672 96.690498,14.635698 
	C120.027473,23.051065 134.189056,39.632061 139.736786,64.140152 
z"/>
<path fill="#B6C8D6" opacity="1.000000" stroke="none" 
	d="
M70.505775,129.657837 
	C61.204815,128.331741 52.833134,125.677238 45.775196,120.041267 
	C44.405510,118.947525 44.251530,116.331367 43.536777,114.417458 
	C45.432236,114.540382 47.757542,113.991798 49.157906,114.888176 
	C66.794441,126.177391 84.394913,126.288429 102.108398,115.213165 
	C104.153610,113.934402 106.617332,112.315025 107.913628,115.304840 
	C108.445564,116.531738 106.856140,119.596840 105.389832,120.624130 
	C95.078438,127.848305 83.499977,130.737854 70.505775,129.657837 
z"/>
<path fill="#B6C8D6" opacity="1.000000" stroke="none" 
	d="
M125.843369,61.256626 
	C130.260406,76.951202 128.751999,91.519638 120.401581,105.214104 
	C119.883736,106.063347 119.499542,107.271088 118.732216,107.634628 
	C117.034386,108.439026 115.132050,108.811783 113.313126,109.360588 
	C113.354538,107.597702 112.938553,105.665596 113.517235,104.101486 
	C115.912453,97.627502 119.457008,91.463173 121.010223,84.818314 
	C123.880058,72.540802 120.396759,61.193489 113.469116,50.849297 
	C112.099388,48.804054 109.808144,46.584766 112.819649,44.497292 
	C115.686859,42.509838 117.497879,45.016655 118.707512,47.191685 
	C121.197662,51.669212 123.409378,56.301590 125.843369,61.256626 
z"/>
<path fill="#B6C8D6" opacity="1.000000" stroke="none" 
	d="
M66.794983,32.374420 
	C60.785015,34.932167 55.256710,37.534225 49.568176,39.719101 
	C47.904659,40.358032 45.785137,39.809681 43.874622,39.805519 
	C44.540623,38.045609 44.684803,35.619740 45.951866,34.626915 
	C61.808292,22.202375 88.568367,21.845686 104.830048,33.839981 
	C106.138138,34.804806 106.382019,37.212463 107.120430,38.949642 
	C105.251488,39.046864 102.875137,39.936752 101.593567,39.116386 
	C90.974564,32.318813 79.499481,30.404980 66.794983,32.374420 
z"/>
<path fill="#B6C9D6" opacity="1.000000" stroke="none" 
	d="
M39.189041,106.783340 
	C36.645969,111.696632 34.400711,109.473228 32.545017,106.735359 
	C26.606274,97.973366 23.686693,88.242996 23.659012,77.649361 
	C23.629915,66.514748 26.599243,56.274487 33.272999,47.331928 
	C34.200989,46.088455 36.751274,46.055679 38.550552,45.462440 
	C38.545151,47.222370 39.227947,49.418320 38.430752,50.676601 
	C27.116028,68.535538 27.032780,86.270744 38.477501,104.066597 
	C38.905998,104.732887 38.991463,105.619789 39.189041,106.783340 
z"/>
<path fill="#B8CAD8" opacity="1.000000" stroke="none" 
	d="
M81.134117,78.939110 
	C81.254723,81.624512 81.700539,84.342735 81.433449,86.989014 
	C80.703102,94.225052 79.805840,101.452477 78.638916,108.628716 
	C78.426445,109.935349 76.626892,110.983910 75.559990,112.151604 
	C74.629929,111.078545 73.036461,110.096748 72.874321,108.918060 
	C71.527214,99.124786 70.444298,89.295174 70.063354,79.241425 
	C74.274811,78.983910 77.704460,78.961510 81.134117,78.939110 
z"/>
<path fill="#B8CAD8" opacity="1.000000" stroke="none" 
	d="
M69.695160,44.731403 
	C75.370384,39.178600 84.330856,43.377026 84.932587,50.302509 
	C85.305161,54.590508 83.463799,57.934582 79.582359,59.451725 
	C75.886536,60.896309 71.914856,60.612732 69.179390,57.196453 
	C65.978081,53.198380 66.134003,49.003059 69.695160,44.731403 
z"/>
<path fill="#B4C7D4" opacity="1.000000" stroke="none" 
	d="
M79.857498,67.924927 
	C75.719810,67.924225 72.043503,67.718689 68.400116,67.977203 
	C64.302612,68.267952 62.522106,65.965111 60.437782,61.309021 
	C64.632523,62.055958 67.697769,62.822163 70.806366,63.095612 
	C74.163628,63.390942 77.583374,63.478725 80.935165,63.187935 
	C84.094604,62.913834 87.201103,62.029423 90.988907,61.283997 
	C89.393517,68.379578 84.849655,68.127045 79.857498,67.924927 
z"/>
<path fill="#AEC2CF" opacity="1.000000" stroke="none" 
	d="
M81.763878,69.063034 
	C83.225151,69.075729 84.285973,68.875740 85.196701,69.158745 
	C86.159393,69.457886 86.979118,70.217079 87.861298,70.775314 
	C86.958870,71.489586 86.074165,72.794815 85.151154,72.822487 
	C79.021233,73.006210 72.881470,72.984703 66.749443,72.839043 
	C65.867004,72.818069 65.008942,71.770653 64.139603,71.198257 
	C65.049850,70.497528 65.934700,69.233192 66.874603,69.190849 
	C71.674385,68.974609 76.488380,69.073868 81.763878,69.063034 
z"/>
<path fill="#A9BECA" opacity="1.000000" stroke="none" 
	d="
M81.258377,78.637894 
	C77.704460,78.961510 74.274811,78.983910 70.379089,78.984390 
	C69.155464,77.800850 68.397896,76.639206 67.640327,75.477570 
	C69.090042,74.985657 70.515030,74.186928 71.994774,74.067703 
	C74.806717,73.841141 77.662750,73.846146 80.474556,74.074280 
	C81.767151,74.179153 82.998543,75.038162 84.257690,75.555206 
	C83.299339,76.482368 82.340996,77.409523 81.258377,78.637894 
z"/>
</svg>